<?xml version="1.0" encoding="utf-8"?>
<!-- Generator: Adobe Illustrator 18.1.1, SVG Export Plug-In . SVG Version: 6.00 Build 0)  -->
<svg version="1.1" id="Layer_1" xmlns="http://www.w3.org/2000/svg" xmlns:xlink="http://www.w3.org/1999/xlink" x="0px" y="0px"
	 viewBox="0 0 1000 123" enable-background="new 0 0 1000 123" xml:space="preserve">
<g>
	<linearGradient id="SVGID_1_" gradientUnits="userSpaceOnUse" x1="1010.3079" y1="62.1356" x2="51.3961" y2="62.1356">
		<stop  offset="0" style="stop-color:#E52620"/>
		<stop  offset="0.2353" style="stop-color:#EAE322"/>
		<stop  offset="0.4449" style="stop-color:#96C11E"/>
		<stop  offset="0.6525" style="stop-color:#3663AC"/>
		<stop  offset="0.8347" style="stop-color:#BE5C9F"/>
		<stop  offset="1" style="stop-color:#E62534"/>
	</linearGradient>
	<path fill="url(#SVGID_1_)" d="M100.6,117c-1.1-5-2.4-9.9-4.8-11.5c-9.4,9.7-21.3,15.1-34.1,15.1c-31,0-56.3-26.5-56.3-58.4
		c0-31.9,25.3-58.3,56.3-58.3c12.8,0,24.8,6.7,34.1,16.6c2.4-1.8,3.7-6.4,4.8-9.4h3.4v38h-3.5c-5-21-19.8-36.6-38-36.6
		c-25.1,0-32.3,26.6-32.3,49.4c0,22.8,7.2,49.6,32.3,49.6c18.2,0,33-12.4,38-36.4h3.5v42H100.6z"/>
	<linearGradient id="SVGID_2_" gradientUnits="userSpaceOnUse" x1="1005.5425" y1="61.7959" x2="51.178" y2="61.7959">
		<stop  offset="0" style="stop-color:#E52620"/>
		<stop  offset="0.2353" style="stop-color:#EAE322"/>
		<stop  offset="0.4449" style="stop-color:#96C11E"/>
		<stop  offset="0.6525" style="stop-color:#3663AC"/>
		<stop  offset="0.8347" style="stop-color:#BE5C9F"/>
		<stop  offset="1" style="stop-color:#E62534"/>
	</linearGradient>
	<path fill="url(#SVGID_2_)" d="M195.3,120c-33.6,0-61.1-26.2-61.1-58.2c0-31.9,27.5-58.2,61.1-58.2c33.8,0,61.3,26.2,61.3,58.2
		C256.6,93.7,229.1,120,195.3,120z M195.3,12.4c-25.9,0-36.5,27.2-36.5,49.4c0,22.2,10.6,49.4,36.5,49.4c26.1,0,36.5-27.2,36.5-49.4
		C231.8,39.6,221.4,12.4,195.3,12.4z"/>
	<linearGradient id="SVGID_3_" gradientUnits="userSpaceOnUse" x1="1001.3997" y1="61.5" x2="53.4051" y2="61.5">
		<stop  offset="0" style="stop-color:#E52620"/>
		<stop  offset="0.2353" style="stop-color:#EAE322"/>
		<stop  offset="0.4449" style="stop-color:#96C11E"/>
		<stop  offset="0.6525" style="stop-color:#3663AC"/>
		<stop  offset="0.8347" style="stop-color:#BE5C9F"/>
		<stop  offset="1" style="stop-color:#E62534"/>
	</linearGradient>
	<path fill="url(#SVGID_3_)" d="M280,12.1V6h55v6.1c-13,0-18,3.1-18,21.5v53.6c0,18.4,4,21.9,19.2,21.9h21.1
		c16.9,0,18.9-3.9,21.3-13.6l0.9-3.4h5.3l-1.5,25H280v-5.5c12,0,17-3.1,17-21.5V33.5C297,15.2,292,12.1,280,12.1z"/>
	<linearGradient id="SVGID_4_" gradientUnits="userSpaceOnUse" x1="1005.4964" y1="61.5" x2="51.2222" y2="61.5">
		<stop  offset="0" style="stop-color:#E52620"/>
		<stop  offset="0.2353" style="stop-color:#EAE322"/>
		<stop  offset="0.4449" style="stop-color:#96C11E"/>
		<stop  offset="0.6525" style="stop-color:#3663AC"/>
		<stop  offset="0.8347" style="stop-color:#BE5C9F"/>
		<stop  offset="1" style="stop-color:#E62534"/>
	</linearGradient>
	<path fill="url(#SVGID_4_)" d="M394,111.5c17,0,21-3.1,21-21.5V33.5c0-18.3-4-21.5-21-21.5V6h62.8c42.6,0,61.1,25.2,61.1,55.5
		c0,30.3-18.5,55.5-61.1,55.5H394V111.5z M435,87.9c0,17.8,4,21.1,19.2,21.1h1.8c29.7,0,35.8-26.8,35.8-47.5
		c0-20.7-6.1-47.5-35.8-47.5c-1.7,0-21,0-21,0V87.9z"/>
	<linearGradient id="SVGID_5_" gradientUnits="userSpaceOnUse" x1="1007.6068" y1="61.5" x2="48.0324" y2="61.5">
		<stop  offset="0" style="stop-color:#E52620"/>
		<stop  offset="0.2353" style="stop-color:#EAE322"/>
		<stop  offset="0.4449" style="stop-color:#96C11E"/>
		<stop  offset="0.6525" style="stop-color:#3663AC"/>
		<stop  offset="0.8347" style="stop-color:#BE5C9F"/>
		<stop  offset="1" style="stop-color:#E62534"/>
	</linearGradient>
	<path fill="url(#SVGID_5_)" d="M627.4,38.1c0,17.1-14.3,31.9-37.1,31.9H569v20.1c0,18.3,4,21.5,17,21.5v5.5h-57v-5.5
		c14,0,20-3.1,20-21.5V33.5c0-18.3-6-21.5-20-21.5V6h61.3C613.1,6,627.4,21,627.4,38.1z M602.8,38.1c0-12.5-7.5-24.1-23.5-24.1H569
		v48h10.3C595.3,62,602.8,50.6,602.8,38.1z"/>
	<linearGradient id="SVGID_6_" gradientUnits="userSpaceOnUse" x1="1001.4213" y1="61.5" x2="61.9138" y2="61.5">
		<stop  offset="0" style="stop-color:#E52620"/>
		<stop  offset="0.2353" style="stop-color:#EAE322"/>
		<stop  offset="0.4449" style="stop-color:#96C11E"/>
		<stop  offset="0.6525" style="stop-color:#3663AC"/>
		<stop  offset="0.8347" style="stop-color:#BE5C9F"/>
		<stop  offset="1" style="stop-color:#E62534"/>
	</linearGradient>
	<path fill="url(#SVGID_6_)" d="M634,12.1V6h59v6.1c-19,0-19,3.1-19,21.5v53.6c0,18.4,3,21.9,18.2,21.9h21.1
		c16.9,0,18.9-3.9,21.3-13.6l0.9-3.4h5.3l-1.5,25H634v-5.5c16,0,16-3.1,16-21.5V33.5C650,15.2,650,12.1,634,12.1z"/>
	<linearGradient id="SVGID_7_" gradientUnits="userSpaceOnUse" x1="1005.8749" y1="59.5" x2="52.2439" y2="59.5">
		<stop  offset="0" style="stop-color:#E52620"/>
		<stop  offset="0.2353" style="stop-color:#EAE322"/>
		<stop  offset="0.4449" style="stop-color:#96C11E"/>
		<stop  offset="0.6525" style="stop-color:#3663AC"/>
		<stop  offset="0.8347" style="stop-color:#BE5C9F"/>
		<stop  offset="1" style="stop-color:#E62534"/>
	</linearGradient>
	<path fill="url(#SVGID_7_)" d="M780.8,97c-4.2,9.9,1.2,14.5,13.2,14.5v5.5h-42v-5.5c12,0,16.2-3.9,21.9-17L813.1,2h3.9l40.3,92.6
		c5.1,11.7,3.7,17,22.7,17v5.5h-59v-5.5c15,0,17.1-4.8,12.8-14.5l-8.6-18h-36.3L780.8,97z M807,36.4L792.5,70h29.2L807,36.4z"/>
	<linearGradient id="SVGID_8_" gradientUnits="userSpaceOnUse" x1="1006.3583" y1="61.5" x2="45.2771" y2="61.5">
		<stop  offset="0" style="stop-color:#E52620"/>
		<stop  offset="0.2353" style="stop-color:#EAE322"/>
		<stop  offset="0.4449" style="stop-color:#96C11E"/>
		<stop  offset="0.6525" style="stop-color:#3663AC"/>
		<stop  offset="0.8347" style="stop-color:#BE5C9F"/>
		<stop  offset="1" style="stop-color:#E62534"/>
	</linearGradient>
	<path fill="url(#SVGID_8_)" d="M968.4,28.2L942,67.9v22.2c0,18.3,6,21.5,19,21.5v5.5h-56v-5.5c12,0,17-3.1,17-21.5V68.4l-28-40.2
		c-8.6-13-14-16.1-28-16.1V6h64v6.1c-13,0-16,4.2-9.6,13.9l20.6,31l20.7-31c6.6-9.9,4.2-13.9-9.8-13.9V6h43v6.1
		C980,12.1,976.3,16.3,968.4,28.2z"/>
</g>
</svg>
